<?xml version="1.0" encoding="UTF-8"?>
<svg width="31px" height="27px" viewBox="0 0 31 27" version="1.1" xmlns="http://www.w3.org/2000/svg" xmlns:xlink="http://www.w3.org/1999/xlink">
    <!-- Generator: Sketch 46 (44423) - http://www.bohemiancoding.com/sketch -->
    <title>Shape</title>
    <desc>Created with Sketch.</desc>
    <defs></defs>
    <g id="Page-1" stroke="none" stroke-width="1" fill="none" fill-rule="evenodd">
        <g id="noun_974856_cc-(1)" fill-rule="nonzero" fill="#C0C0C0">
            <path d="M31,11.8501264 L31,13.3723234 C31,13.4430518 30.9597,13.5137801 30.9504,13.5845085 C30.7304441,15.7805418 29.8538666,17.8612495 28.4332,19.5595164 C26.5701,21.8443495 24.18,23.3511709 21.39,24.2952406 C19.5667511,24.9080119 17.6544496,25.2196717 15.7294,25.2177842 C14.1131888,25.196421 12.5004181,25.0638716 10.9027,24.8210905 C10.6363698,24.7722021 10.3611997,24.8202438 10.1277,24.9563969 C8.42282048,25.9775555 6.52267224,26.6362282 4.5477,26.8906635 C3.88453066,26.9725832 3.21641142,27.0085471 2.5482,26.9982935 C2.20947528,26.9877072 1.9033701,26.7951832 1.74923852,26.4957888 C1.59510693,26.1963945 1.61735196,25.8375317 1.8073,25.5591254 C1.89421115,25.4205557 1.99053397,25.2880179 2.0956,25.1624316 C2.97383962,24.0782612 3.7170096,22.8929406 4.309,21.6321645 C4.35211071,21.5738067 4.36890961,21.5003339 4.35539769,21.4292366 C4.34188576,21.3581393 4.29927174,21.2957775 4.2377,21.2569967 C3.15880763,20.3444578 2.2400893,19.2606031 1.519,18.0496199 C0.909031355,17.0249731 0.475301054,15.9067314 0.2356,14.7407632 C0.1457,14.291792 0.0775,13.8182195 0,13.3723234 L0,11.8501264 C0.0233594125,11.7640642 0.0419868772,11.6768065 0.0558,11.588739 C0.243240701,9.77559902 0.882434144,8.03719406 1.9158,6.53012447 C3.05143779,4.89067184 4.53217141,3.51518772 6.2558,2.4986086 C7.91657431,1.49760561 9.73937612,0.789104101 11.6436,0.404434449 C14.6204951,-0.224246344 17.7074317,-0.118653692 20.6336,0.711949009 C22.2867709,1.17136781 23.8561971,1.88751569 25.2836,2.83379947 C26.8679905,3.86732243 28.2165244,5.21866249 29.2423,6.80073729 C29.9720702,7.9133498 30.4861667,9.15126381 30.7582,10.4509351 C30.8512,10.9152821 30.9194,11.3827042 31,11.8501264 Z" id="Shape"></path>
        </g>
    </g>
</svg>