<?xml version="1.0" encoding="UTF-8"?>
<svg width="40px" height="23px" viewBox="0 0 40 23" version="1.1" xmlns="http://www.w3.org/2000/svg" xmlns:xlink="http://www.w3.org/1999/xlink">
    <!-- Generator: Sketch 46 (44423) - http://www.bohemiancoding.com/sketch -->
    <title>noun_421_cc (1)</title>
    <desc>Created with Sketch.</desc>
    <defs></defs>
    <g id="Page-1" stroke="none" stroke-width="1" fill="none" fill-rule="evenodd">
        <g id="noun_421_cc-(1)" fill-rule="nonzero" fill="#C0C0C0">
            <path d="M39.9972001,11.2462806 C39.9964001,11.2294592 39.9948002,11.2134389 39.9936002,11.197018 C39.9928002,11.1886073 39.9924002,11.1801966 39.9916003,11.1721865 C39.9904003,11.1601712 39.9884003,11.1481559 39.9868004,11.1365412 C39.9852004,11.1225234 39.9836005,11.1085056 39.9812006,11.0948883 C39.9808006,11.0932863 39.9804006,11.0912837 39.9804006,11.0896817 C39.9312021,10.7800885 39.7856064,10.4897197 39.5624131,10.2662359 C38.2864514,8.75191258 36.7684969,7.40420091 35.2249433,6.17343777 C31.900643,3.52126937 28.098757,1.30245135 23.9020829,0.409317016 C21.4765557,-0.106538149 19.0358289,-0.128566126 16.5975021,0.307988323 C14.3795686,0.705292922 12.2420327,1.5311418 10.2412928,2.55484195 C7.10978671,4.15687663 4.2498725,6.36568193 1.75794726,8.84202703 C1.2967611,9.30020895 0.837974861,9.76800307 0.418787436,10.2658353 C-0.139595812,10.9282767 -0.139595812,11.7128732 0.418787436,12.3753145 C1.69474916,13.8896378 3.21270362,15.2369489 4.75625731,16.4681126 C8.08095757,19.120281 11.8828435,21.3386985 16.0795176,22.2318328 C18.5050448,22.7480885 20.9461716,22.7701165 23.3844985,22.333562 C25.6020319,21.9362574 27.7395678,21.1104086 29.7407078,20.0867084 C32.8722138,18.4842732 35.732128,16.2758684 38.2240533,13.7995233 C38.6852394,13.3409409 39.1440257,12.8735473 39.5632131,12.375715 C39.7864064,12.1518307 39.932002,11.8618624 39.9812006,11.5518687 C39.9812006,11.5502666 39.9816006,11.5482641 39.9820005,11.5466621 C39.9844005,11.5326443 39.9860004,11.519027 39.9876004,11.5050092 C39.9892003,11.4933944 39.9912003,11.4813792 39.9924002,11.4693639 C39.9932002,11.4609532 39.9936002,11.452943 39.9944002,11.4445324 C39.9956001,11.428512 39.9972001,11.4124917 39.9980001,11.3956703 C39.9992,11.3708388 40,11.3460072 40,11.3207752 C40,11.2955431 39.9984,11.2711121 39.9972001,11.2462806 Z M19.9998,19.0269625 C15.7491275,19.0269625 12.3036309,15.5769808 12.3036309,11.3207752 C12.3036309,7.06497007 15.7491275,3.61458789 19.9998,3.61458789 C24.2504725,3.61458789 27.6959691,7.06456956 27.6959691,11.3207752 C27.6959691,15.5769808 24.2504725,19.0269625 19.9998,19.0269625 Z" id="Shape"></path>
            <circle id="Oval" opacity="0.900000036" cx="20" cy="11.6981132" r="2.64150943"></circle>
        </g>
    </g>
</svg>