<?xml version="1.0" encoding="UTF-8"?>
<svg width="18px" height="29px" viewBox="0 0 18 29" version="1.1" xmlns="http://www.w3.org/2000/svg" xmlns:xlink="http://www.w3.org/1999/xlink">
    <!-- Generator: Sketch 46 (44423) - http://www.bohemiancoding.com/sketch -->
    <title>noun_943827_cc</title>
    <desc>Created with Sketch.</desc>
    <defs></defs>
    <g id="Page-1" stroke="none" stroke-width="1" fill="none" fill-rule="evenodd">
        <g id="noun_943827_cc" fill-rule="nonzero" fill="#C0C0C0">
            <path d="M16.7374101,5 L1.26258993,5 C0.550359712,5 0,5.53988777 0,6.23856607 L0,27.8023188 C0,28.2786904 0.258992806,28.6915458 0.712230216,28.8820944 C1.16546763,29.072643 1.65107914,29.0408849 2.00719424,28.7233039 L9,23.3244261 L15.9928058,28.7233039 C16.1870504,28.9138525 16.4784173,28.9773687 16.7374101,28.9773687 C16.9316547,28.9773687 17.0935252,28.9138525 17.2877698,28.8185782 C17.7410072,28.6280295 18,28.1834161 18,27.7388026 L18,6.17504986 C18,5.53988777 17.4496403,5 16.7374101,5 Z" id="Shape"></path>
            <rect id="Rectangle-path" x="0" y="0" width="18" height="2"></rect>
        </g>
    </g>
</svg>