<?xml version="1.0" encoding="UTF-8"?>
<svg width="48px" height="51px" viewBox="0 0 48 51" version="1.1" xmlns="http://www.w3.org/2000/svg" xmlns:xlink="http://www.w3.org/1999/xlink">
    <!-- Generator: Sketch 46 (44423) - http://www.bohemiancoding.com/sketch -->
    <title>noun_1123200_cc (1)</title>
    <desc>Created with Sketch.</desc>
    <defs></defs>
    <g id="Page-1" stroke="none" stroke-width="1" fill="none" fill-rule="evenodd">
        <g id="HOME" transform="translate(-696.000000, -25.000000)" fill-rule="nonzero" fill="#FFFFFF">
            <g id="noun_1123200_cc-(1)" transform="translate(696.000000, 25.000000)">
                <path d="M47.3327833,0.25097084 C46.9151729,-0.0262808148 46.3859596,-0.076581331 45.9239481,0.113842052 L24,9.21404378 L2.0760519,0.113842052 C1.61464037,-0.076581331 1.08542714,-0.0256819991 0.66721668,0.25097084 C0.250206255,0.528821311 0,0.995897533 0,1.49650743 L0,40.1632328 C0,40.7680367 0.364209105,41.3135577 0.924023101,41.5458982 L23.4239856,50.8850274 C23.4563864,50.8982013 23.4899872,50.9035907 23.5223881,50.9149682 C23.5541889,50.9257469 23.5847896,50.9347291 23.6165904,50.9437113 C23.7425936,50.977245 23.8709968,51 24,51 C24.1290032,51 24.2574064,50.977245 24.3834096,50.9437113 C24.4158104,50.9347291 24.4458111,50.9257469 24.4776119,50.9149682 C24.5100128,50.9035907 24.5436136,50.8988002 24.5760144,50.8850274 L47.0759769,41.5458982 C47.6357909,41.3135577 48,40.7680367 48,40.1632328 L48,1.49650743 C48,0.995897533 47.7497937,0.528821311 47.3327833,0.25097084 Z M3.000075,3.74026975 L22.4999625,11.8344611 L22.4999625,47.2585997 L3.000075,39.1644083 L3.000075,3.74026975 Z M44.999925,39.1644083 L25.5000375,47.2585997 L25.5000375,11.8344611 L44.999925,3.74026975 L44.999925,39.1644083 Z" id="Shape"></path>
            </g>
        </g>
    </g>
</svg>