<?xml version="1.0" encoding="UTF-8"?>
<svg width="24px" height="33px" viewBox="0 0 24 33" version="1.1" xmlns="http://www.w3.org/2000/svg" xmlns:xlink="http://www.w3.org/1999/xlink">
    <!-- Generator: Sketch 46 (44423) - http://www.bohemiancoding.com/sketch -->
    <title>Shape</title>
    <desc>Created with Sketch.</desc>
    <defs></defs>
    <g id="Page-1" stroke="none" stroke-width="1" fill="none" fill-rule="evenodd">
        <g id="CATEGORY" transform="translate(-877.000000, -40.000000)" fill-rule="nonzero" fill="#000000">
            <path d="M899.705401,58.7843333 C898.05765,55.4264 895.530624,52.6272667 893.239473,49.6884333 C891.104947,46.9538333 889.101129,44.1701 889.143196,40 C886.579361,42.3906667 884.994336,44.6346667 883.963318,47.3414 C882.85981,50.263 885.145702,52.8982333 884.763718,55.7483333 C882.629192,55.6764667 882.592759,53.7511 881.640242,52.7273667 C874.918531,61.5218667 875.499582,69.6549 883.382643,73 C879.841125,65.3447333 885.428903,62.1547333 890.440138,58.0770333 C890.372155,60.6305 888.996337,62.1628 888.300729,63.9297667 C887.730946,65.3674667 888.127954,66.5855333 889.535321,67.2264667 C891.277347,68.0210333 891.512847,66.356 892.020281,65.4290667 C892.517573,64.5124 892.742556,63.4553 893.161349,62.2522667 C896.247266,65.1760667 895.802557,68.5442667 894.89774,72.0268667 C900.715009,69.3634 902.499102,64.4709667 899.705401,58.7843333 Z" id="Shape"></path>
        </g>
    </g>
</svg>