<?xml version="1.0" encoding="UTF-8"?>
<svg width="96px" height="72px" viewBox="0 0 96 72" version="1.1" xmlns="http://www.w3.org/2000/svg" xmlns:xlink="http://www.w3.org/1999/xlink">
    <!-- Generator: Sketch 46 (44423) - http://www.bohemiancoding.com/sketch -->
    <title>Group</title>
    <desc>Created with Sketch.</desc>
    <defs></defs>
    <g id="Page-1" stroke="none" stroke-width="1" fill="none" fill-rule="evenodd">
        <g id="noun_1213112_cc" fill-rule="nonzero" fill="#A6A6AE">
            <g id="Group">
                <path d="M95.4,20.2 C94.3,9.6 85.4,1.2 74.7,0.7 C62.1,0.1 51.7,10.1 51.7,22.6 C51.7,31.8 57.4,39.6 65.4,42.9 L53.1,68.1 C52.4,69.6 53.5,71.4 55.1,71.4 L63.5,71.4 C64.2,71.4 64.9,71.1 65.3,70.5 L91.7,34.9 C94.5,30.7 95.9,25.6 95.4,20.2 Z" id="Shape"></path>
                <path d="M23.5,0.7 C10.9,0.1 0.5,10.1 0.5,22.6 C0.5,31.8 6.2,39.6 14.2,42.9 L1.9,68.1 C1.2,69.6 2.3,71.4 3.9,71.4 L12.3,71.4 C13,71.4 13.7,71.1 14.1,70.5 L40.5,34.9 C43.3,30.8 44.7,25.7 44.1,20.3 C43,9.6 34.1,1.2 23.5,0.7 Z" id="Shape"></path>
            </g>
        </g>
    </g>
</svg>